<svg xmlns="http://www.w3.org/2000/svg" viewBox="0 0 235.1 239"><style type="text/css">  
	.st0{fill:#3B5998;}
	.st1{fill:#FFFFFF;}
</style><path class="st0" d="M117.5 3c64.4 0 116.5 52.2 116.5 116.5 0 64.4-52.2 116.5-116.5 116.5C53.2 236.1 1 183.9 1 119.5 1 55.2 53.2 3 117.5 3L117.5 3zM117.5 3"/><path class="st1" d="M131.7 83.2h15V61h-17.7v0.1c-21.4 0.8-25.8 12.8-26.2 25.4h0v11.1H88.3v21.7h14.6v58.2h21.9v-58.2h18l3.5-21.7h-21.4v-6.7C124.8 86.6 127.7 83.2 131.7 83.2L131.7 83.2zM131.7 83.2"/></svg>