<svg xmlns="http://www.w3.org/2000/svg" viewBox="0 0 93.8 92.8"><style type="text/css">  
	.st0{fill:#007AB9;}
	.st1{fill:#F1F2F2;}
</style><path class="st0" d="M91.8 46.9c0 24.8-20.1 44.9-44.9 44.9S2 71.7 2 46.9C2 22.1 22.1 2 46.9 2S91.8 22.1 91.8 46.9L91.8 46.9zM91.8 46.9"/><path class="st1" d="M73.7 50.5V69H63V51.7c0-4.3-1.5-7.3-5.4-7.3 -3 0-4.7 2-5.5 3.9C51.7 49 51.7 50 51.7 51v18H40.9c0 0 0.1-29.2 0-32.3h10.7v4.6c0 0-0.1 0.1-0.1 0.1h0.1v-0.1c1.4-2.2 4-5.3 9.7-5.3C68.4 36 73.7 40.6 73.7 50.5L73.7 50.5zM29.7 21.2c-3.7 0-6.1 2.4-6.1 5.6 0 3.1 2.3 5.6 5.9 5.6h0.1c3.7 0 6.1-2.5 6.1-5.6C35.7 23.6 33.4 21.2 29.7 21.2L29.7 21.2zM24.3 69H35V36.7H24.3V69zM24.3 69"/></svg>