<svg xmlns="http://www.w3.org/2000/svg" viewBox="0 0 463 464"><style type="text/css">  
	.st0{clip-path:url(#SVGID_2_);}
</style><defs><rect y="1" width="463" height="463"/></defs><clipPath><use xlink:href="#SVGID_1_"/></clipPath><path class="st0" d="M462.3 365.8c1 7.5-1.3 14-6.9 19.6L390.3 450c-2.9 3.3-6.8 6-11.5 8.3 -4.7 2.3-9.4 3.8-14 4.4 -0.3 0-1.3 0.1-2.9 0.2 -1.6 0.2-3.8 0.2-6.4 0.2 -6.2 0-16.2-1.1-30.1-3.2 -13.9-2.1-30.8-7.3-50.9-15.7 -20.1-8.3-42.8-20.8-68.3-37.5 -25.5-16.6-52.6-39.5-81.3-68.5 -22.8-22.5-41.8-44.1-56.8-64.6 -15-20.6-27.1-39.6-36.2-57 -9.1-17.5-16-33.3-20.6-47.5C6.8 155 3.7 142.7 2 132.5c-1.6-10.3-2.3-18.4-2-24.2 0.3-5.9 0.5-9.1 0.5-9.8 0.7-4.6 2.1-9.2 4.4-14 2.3-4.7 5.1-8.6 8.3-11.5L78.4 7.9C83 3.3 88.2 1 94.1 1c4.2 0 8 1.2 11.3 3.7 3.3 2.4 6 5.5 8.3 9.1l52.4 99.4c2.9 5.2 3.8 10.9 2.4 17.1 -1.3 6.2-4.1 11.4-8.3 15.7l-24 24c-0.7 0.7-1.2 1.7-1.7 3.2 -0.5 1.5-0.7 2.7-0.7 3.7 1.3 6.9 4.2 14.7 8.8 23.5 3.9 7.8 10 17.4 18.1 28.6 8.2 11.3 19.7 24.2 34.8 38.9 14.7 15 27.7 26.7 39.2 35 11.4 8.3 21 14.4 28.6 18.4 7.7 3.9 13.5 6.3 17.6 7.1l6.1 1.2c0.7 0 1.7-0.2 3.2-0.7 1.5-0.5 2.5-1.1 3.2-1.7l27.9-28.4c5.9-5.2 12.7-7.8 20.6-7.8 5.6 0 10 1 13.2 2.9h0.5l94.5 55.8C456.9 353.8 461 359.2 462.3 365.8L462.3 365.8zM462.3 365.8"/></svg>