<svg xmlns="http://www.w3.org/2000/svg" viewBox="0 0 200.9 206"><style type="text/css">  
	.st0{clip-path:url(#SVGID_2_);fill-rule:evenodd;clip-rule:evenodd;}
</style><defs><rect y="2.5" width="200.9" height="201"/></defs><clipPath><use xlink:href="#SVGID_1_"/></clipPath><path class="st0" d="M195.3 174.2l-43.5-43.5c-0.2-0.2-0.5-0.4-0.7-0.6 8.6-13 13.6-28.5 13.6-45.2 0-45.5-36.9-82.3-82.3-82.3S0 39.4 0 84.8c0 45.5 36.9 82.3 82.3 82.3 16.7 0 32.3-5 45.2-13.6 0.2 0.2 0.4 0.5 0.6 0.7l43.5 43.5c6.5 6.5 17.1 6.5 23.7 0C201.9 191.3 201.9 180.7 195.3 174.2L195.3 174.2zM82.3 138.6c-29.7 0-53.8-24.1-53.8-53.8C28.5 55.1 52.6 31 82.3 31s53.8 24.1 53.8 53.8C136.1 114.5 112 138.6 82.3 138.6L82.3 138.6zM82.3 138.6"/></svg>