<svg xmlns="http://www.w3.org/2000/svg" viewBox="0 0 94 91"><style type="text/css">  
	.st0{fill:#55ACEE;}
	.st1{fill:#F1F2F2;}
</style><path class="st0" d="M91.8 45.1C91.8 69.9 71.7 90 46.9 90S2 69.9 2 45.1C2 20.3 22.1 0.3 46.9 0.3S91.8 20.3 91.8 45.1L91.8 45.1zM91.8 45.1"/><path class="st1" d="M74.4 32.5c-1.9 0.9-4 1.4-6.2 1.7 2.2-1.3 3.9-3.4 4.7-5.9 -2.1 1.2-4.4 2.1-6.8 2.6 -2-2.1-4.7-3.4-7.8-3.4 -5.9 0-10.7 4.8-10.7 10.7 0 0.8 0.1 1.7 0.3 2.4 -8.9-0.4-16.8-4.7-22.1-11.2 -0.9 1.6-1.5 3.4-1.5 5.4 0 3.7 1.9 7 4.8 8.9 -1.8-0.1-3.4-0.5-4.9-1.3 0 0 0 0.1 0 0.1 0 5.2 3.7 9.5 8.6 10.5 -0.9 0.2-1.8 0.4-2.8 0.4 -0.7 0-1.4-0.1-2-0.2 1.4 4.3 5.3 7.4 10 7.4 -3.7 2.9-8.3 4.6-13.3 4.6 -0.9 0-1.7 0-2.6-0.1 4.7 3 10.4 4.8 16.4 4.8C58.3 70 69 53.6 69 39.4c0-0.5 0-0.9 0-1.4C71.1 36.5 72.9 34.7 74.4 32.5L74.4 32.5zM74.4 32.5"/></svg>