<svg aria-hidden="true" style="position: absolute; width: 0; height: 0; overflow: hidden;" version="1.1" xmlns="http://www.w3.org/2000/svg" xmlns:xlink="http://www.w3.org/1999/xlink">
<defs>
<symbol id="icon-arrow" viewBox="0 0 58 32">
<title>arrow</title>
<path d="M29.168 32.094c-1.038 0-1.982-0.378-2.832-1.133l-24.26-24.26c-1.51-1.51-1.51-4.059 0-5.569s4.059-1.51 5.569 0l21.428 21.428 21.522-21.428c1.51-1.51 4.059-1.51 5.569 0s1.51 4.059 0 5.569l-24.26 24.26c-0.755 0.755-1.794 1.133-2.737 1.133v0z"></path>
</symbol>
<symbol id="icon-facebook" viewBox="0 0 31 32">
<title>facebook</title>
<path fill="#3b5998" style="fill: var(--color1, #3b5998)" d="M15.732 0.402c8.623 0 15.598 6.989 15.598 15.598 0 8.623-6.989 15.598-15.598 15.598-8.609 0.013-15.598-6.976-15.598-15.598 0-8.609 6.989-15.598 15.598-15.598v0z"></path>
<path fill="#fff" style="fill: var(--color2, #fff)" d="M17.633 11.14h2.008v-2.972h-2.37v0.013c-2.865 0.107-3.454 1.714-3.508 3.401v0 1.486h-1.941v2.905h1.955v7.792h2.932v-7.792h2.41l0.469-2.905h-2.865v-0.897c-0.013-0.576 0.375-1.031 0.91-1.031v0z"></path>
</symbol>
<symbol id="icon-linkedin" viewBox="0 0 32 32">
<title>linkedin</title>
<path fill="#007ab9" style="fill: var(--color3, #007ab9)" d="M31.655 16.172c0 8.552-6.931 15.483-15.483 15.483s-15.483-6.931-15.483-15.483c0-8.552 6.931-15.483 15.483-15.483s15.483 6.931 15.483 15.483v0z"></path>
<path fill="#f1f2f2" style="fill: var(--color4, #f1f2f2)" d="M25.414 17.414v6.379h-3.69v-5.966c0-1.483-0.517-2.517-1.862-2.517-1.034 0-1.621 0.69-1.897 1.345-0.138 0.241-0.138 0.586-0.138 0.931v6.207h-3.724c0 0 0.034-10.069 0-11.138h3.69v1.586c0 0-0.034 0.034-0.034 0.034h0.034v-0.034c0.483-0.759 1.379-1.828 3.345-1.828 2.448 0 4.276 1.586 4.276 5v0zM10.241 7.31c-1.276 0-2.103 0.828-2.103 1.931 0 1.069 0.793 1.931 2.034 1.931h0.034c1.276 0 2.103-0.862 2.103-1.931 0-1.103-0.793-1.931-2.069-1.931v0zM8.379 23.793h3.69v-11.138h-3.69v11.138z"></path>
</symbol>
<symbol id="icon-mail" viewBox="0 0 42 32">
<title>mail</title>
<path d="M37.061 0.272h-31.714c-2.721 0-4.939 2.122-4.939 4.735v22.109c0 2.612 2.218 4.735 4.939 4.735h31.714c2.721 0 4.939-2.122 4.939-4.735v-22.109c0-2.612-2.218-4.735-4.939-4.735v0zM37.061 27.673h-31.714c-0.395 0-0.748-0.259-0.748-0.558v-19.184l14.34 12.109c0.299 0.245 0.667 0.381 1.048 0.381h2.422c0.381 0 0.762-0.136 1.048-0.381l14.34-12.109v19.184c0.014 0.299-0.327 0.558-0.735 0.558v0zM21.197 16.272l-13.946-11.81h27.905l-13.959 11.81z"></path>
</symbol>
<symbol id="icon-phone" viewBox="0 0 32 32">
<title>phone</title>
<path d="M31.883 25.228c0.069 0.517-0.090 0.966-0.476 1.352l-4.49 4.455c-0.2 0.228-0.469 0.414-0.793 0.572s-0.648 0.262-0.966 0.303c-0.021 0-0.090 0.007-0.2 0.014-0.11 0.014-0.262 0.014-0.441 0.014-0.428 0-1.117-0.076-2.076-0.221s-2.124-0.503-3.51-1.083c-1.386-0.572-2.952-1.434-4.71-2.586-1.759-1.145-3.628-2.724-5.607-4.724-1.572-1.552-2.883-3.041-3.917-4.455-1.034-1.421-1.869-2.731-2.497-3.931-0.628-1.207-1.103-2.297-1.421-3.276-0.31-0.972-0.524-1.821-0.641-2.524-0.11-0.71-0.159-1.269-0.138-1.669 0.021-0.407 0.034-0.628 0.034-0.676 0.048-0.317 0.145-0.634 0.303-0.966 0.159-0.324 0.352-0.593 0.572-0.793l4.497-4.49c0.317-0.317 0.676-0.476 1.083-0.476 0.29 0 0.552 0.083 0.779 0.255 0.228 0.166 0.414 0.379 0.572 0.628l3.614 6.855c0.2 0.359 0.262 0.752 0.166 1.179-0.090 0.428-0.283 0.786-0.572 1.083l-1.655 1.655c-0.048 0.048-0.083 0.117-0.117 0.221s-0.048 0.186-0.048 0.255c0.090 0.476 0.29 1.014 0.607 1.621 0.269 0.538 0.69 1.2 1.248 1.972 0.566 0.779 1.359 1.669 2.4 2.683 1.014 1.034 1.91 1.841 2.703 2.414 0.786 0.572 1.448 0.993 1.972 1.269 0.531 0.269 0.931 0.434 1.214 0.49l0.421 0.083c0.048 0 0.117-0.014 0.221-0.048s0.172-0.076 0.221-0.117l1.924-1.959c0.407-0.359 0.876-0.538 1.421-0.538 0.386 0 0.69 0.069 0.91 0.2h0.034l6.517 3.848c0.469 0.283 0.752 0.655 0.841 1.11v0z"></path>
</symbol>
<symbol id="icon-search" viewBox="0 0 31 32">
<title>search</title>
<path d="M30.338 27.060l-6.757-6.757c-0.031-0.031-0.078-0.062-0.109-0.093 1.336-2.019 2.113-4.427 2.113-7.021 0-7.068-5.732-12.784-12.784-12.784s-12.8 5.716-12.8 12.769c0 7.068 5.732 12.784 12.784 12.784 2.594 0 5.017-0.777 7.021-2.113 0.031 0.031 0.062 0.078 0.093 0.109l6.757 6.757c1.010 1.010 2.656 1.010 3.682 0 1.025-0.994 1.025-2.641 0-3.651v0zM12.784 21.53c-4.614 0-8.357-3.744-8.357-8.357s3.744-8.357 8.357-8.357 8.357 3.744 8.357 8.357c0 4.614-3.744 8.357-8.357 8.357v0z"></path>
</symbol>
<symbol id="icon-twitter" viewBox="0 0 33 32">
<title>twitter</title>
<path fill="#55acee" style="fill: var(--color5, #55acee)" d="M32.281 15.859c0 8.721-7.068 15.789-15.789 15.789s-15.789-7.068-15.789-15.789c0-8.721 7.068-15.754 15.789-15.754s15.789 7.033 15.789 15.754v0z"></path>
<path fill="#f1f2f2" style="fill: var(--color4, #f1f2f2)" d="M26.163 11.429c-0.668 0.316-1.407 0.492-2.18 0.598 0.774-0.457 1.371-1.196 1.653-2.075-0.738 0.422-1.547 0.738-2.391 0.914-0.703-0.738-1.653-1.196-2.743-1.196-2.075 0-3.763 1.688-3.763 3.763 0 0.281 0.035 0.598 0.105 0.844-3.13-0.141-5.908-1.653-7.771-3.938-0.316 0.563-0.527 1.196-0.527 1.899 0 1.301 0.668 2.462 1.688 3.13-0.633-0.035-1.196-0.176-1.723-0.457 0 0 0 0.035 0 0.035 0 1.829 1.301 3.341 3.024 3.692-0.316 0.070-0.633 0.141-0.985 0.141-0.246 0-0.492-0.035-0.703-0.070 0.492 1.512 1.864 2.602 3.516 2.602-1.301 1.020-2.919 1.618-4.677 1.618-0.316 0-0.598 0-0.914-0.035 1.653 1.055 3.657 1.688 5.767 1.688 6.963 0.035 10.725-5.732 10.725-10.725 0-0.176 0-0.316 0-0.492 0.738-0.527 1.371-1.16 1.899-1.934v0z"></path>
</symbol>
</defs>
</svg>
